<svg class="svg-icon" style="width: 1em; height: 1em;vertical-align: middle;fill: currentColor;overflow: hidden;" viewBox="0 0 1024 1024" version="1.1" xmlns="http://www.w3.org/2000/svg"><path d="M554.88 52.896l0 0-179.2 179.2c-109.216 109.216-112.64 283.296-11.936 397.664l-145.056 145.056-145.056-145.056-25.6 27.296 314.016 314.016 23.904-23.904-145.056-145.056 145.056-145.056c114.336 100.704 288.416 97.28 397.664-11.936l95.584-95.584 3.424 0 0-3.424 81.92-81.92-409.6-411.296zM759.68 621.216c-98.976 98.976-262.816 98.976-361.824 0-22.176-22.176-37.536-46.08-51.2-71.68l484.704 0-71.68 71.68zM865.504 513.696l-530.784 0c-27.296-87.04-5.12-186.016 63.136-256l157.024-155.296 361.824 361.824-51.2 49.504z"  /></svg>